<svg width="14" height="15" viewBox="0 0 14 15" fill="none" xmlns="http://www.w3.org/2000/svg">
<path fill-rule="evenodd" clip-rule="evenodd" d="M3.25 4.25C3.25 2.18225 4.93225 0.5 7 0.5C9.06775 0.5 10.75 2.18225 10.75 4.25C10.75 6.31775 9.06775 8 7 8C4.93225 8 3.25 6.31775 3.25 4.25ZM7 6.5C5.75736 6.5 4.75 5.49264 4.75 4.25C4.75 3.00736 5.75736 2 7 2C8.24264 2 9.25 3.00736 9.25 4.25C9.25 5.49264 8.24264 6.5 7 6.5Z" fill="white"/>
<path d="M13.75 14V14.75H12.25V14C12.25 11.9323 10.5677 10.25 8.5 10.25H5.5C3.43225 10.25 1.75 11.9323 1.75 14V14.75H0.25V14C0.25 11.1058 2.605 8.75 5.5 8.75H8.5C11.3942 8.75 13.75 11.1058 13.75 14Z" fill="white"/>
</svg>
